<svg xmlns="http://www.w3.org/2000/svg" width="419.972" height="57.967" viewBox="0 0 419.972 57.967"><g fill="#FFF"><path d="M17.784 13.277c1.133 0 1.781-.812 2.104-2.267h4.694c.973-.163 2.267-1.456 3.887-3.884.811-3.728-2.104-5.993-8.741-7.126-2.752 1.133-4.694 3.887-5.506 7.935 1.78 3.56 2.915 5.342 3.562 5.342zm255.583 1.413c1.095.305 1.927.408 2.722.054l4.883-1.875c.501-1.264.088-3.39 1.706-5.817.811-3.728-.73-4.508-7.364-5.64-2.755 1.132-3.239 3.398-4.05 7.449 1.781 3.561-1.647 4.782 2.103 5.829z"/><path d="M415.911 22.019c-1.135 0-2.268.162-3.4.652-2.752-.49-5.021-.652-6.802-.652h-2.426l-1.618.652.159-.652-4.047.652h-2.431l-3.723-.652c-.162.485-1.459.973-4.209 1.459l-1.459-.807c-6.314.807-10.361 1.618-12.144 2.426l-3.075-.808-3.4 1.616c-.487 0-1.296-.322-2.269-.809-11.494 2.103-17.969 3.562-19.752 4.696l.165-.812c-17.004 3.723-30.119 7.128-39.671 10.202-21.535 6.313-34.487 9.39-38.857 9.39.159-.484 0-1.292-.163-2.431 5.343-10.685 8.258-16.996 8.581-18.778-1.296-2.592-2.267-3.887-3.077-3.887h-3.075c-.556 0-1.323.56-2.288 1.649a2.982 2.982 0 0 0-.136-.03l-5.344-.165c-14.085 0-40.477 8.585-79.337 25.907l-3.398-1.941c.322-1.458 3.398-7.45 9.067-18.135.161-1.295-1.297-4.532-4.536-9.716 1.459-1.132 2.591-2.751 3.726-5.176-1.779-5.672-4.05-8.422-6.64-8.422-2.103 0-4.857 3.884-8.258 11.657-4.371 1.617-6.636 2.911-6.798 3.721-.028.188-.008.399 0 .599-.67-.482-1.679-.944-3.067-1.408-1.136 0-2.268.162-3.402.652-2.751-.49-5.019-.652-6.8-.652h-2.427l-1.619.652.16-.652-4.046.652h-2.431l-3.723-.652c-.164.485-1.459.973-4.209 1.459l-1.458-.807c-6.313.807-10.362 1.618-12.143 2.426l-3.078-.808-3.399 1.616c-.485 0-1.294-.322-2.267-.809-11.495 2.103-17.973 3.562-19.752 4.696l.162-.812C74.775 32.7 61.662 36.105 52.109 39.179c-21.533 6.313-34.486 9.39-38.859 9.39.161-.484 0-1.292-.163-2.431 5.345-10.685 8.259-16.996 8.581-18.778-1.295-2.592-2.268-3.887-3.076-3.887h-3.076c-2.105 0-7.123 7.771-15.218 23.479-1.296 6.149 1.618 9.878 8.74 11.011 5.669 0 26.069-6.479 61.366-19.595 18.941-5.183 43.393-8.903 73.346-11.008.811.487 2.104.811 3.885.811l4.049-.811c-.164.487.648.811 2.104.811l1.782-.811c-.164.487.162.811.647.811h6.961c1.731-.787 2.681-1.425 2.887-2.198.227.434.5.892.829 1.388l6.479-1.781 6.151 4.532c-.809 3.238-4.209 10.523-10.525 22.019l-.809 3.887.809 1.946c5.184-.49 8.908-.648 11.175-.648h1.291c2.107-1.298 3.729-1.943 4.86-1.943 9.553-4.697 20.725-9.878 33.84-15.544 10.849-4.696 23.638-8.099 38.208-10.2l5.795-.773c-2.571 3.901-5.946 9.908-10.167 18.099-1.296 6.149 1.617 9.878 8.741 11.011 5.666 0 26.067-6.479 61.363-19.595 18.944-5.183 43.395-8.903 73.347-11.008.81.487 2.105.811 3.883.811l4.05-.811c-.161.487.647.811 2.104.811l1.783-.811c-.163.487.163.811.649.811h6.96c1.78-.811 2.752-1.462 2.916-2.27l.16-.809c.162-1.131-1.131-2.104-4.046-3.076z"/></g></svg>